<?xml version="1.0" encoding="UTF-8"?>
<svg width="400px" height="396px" viewBox="0 0 400 396" version="1.1" xmlns="http://www.w3.org/2000/svg" xmlns:xlink="http://www.w3.org/1999/xlink">
    <!-- Generator: Sketch 50.2 (55047) - http://www.bohemiancoding.com/sketch -->
    <title>z-coral</title>
    <desc>Created with Sketch.</desc>
    <defs></defs>
    <g id="LOGOS" stroke="none" stroke-width="1" fill="none" fill-rule="evenodd">
        <g id="z-coral" transform="translate(-0.051088, 0.000000)" fill="#FF4D7C">
            <path d="M192.713132,395.671948 C143.348642,393.880276 97.0369421,374.296401 61.3594191,339.90875 C23.2012859,303.134508 1.76895424,253.82548 1.01884008,201.07146 C-0.530232897,92.1668539 87.5785258,2.31692203 197.430129,0.781203129 C222.90261,0.42148519 247.785467,4.77960638 271.391385,13.7345078 C282.140696,17.8090052 287.524073,29.7557914 283.410656,40.4124354 C279.29724,51.0690793 267.253546,56.4025895 256.497258,52.3280921 C237.85256,45.2582511 218.178635,41.8063424 198.019753,42.0968838 C111.149555,43.3109318 41.4726714,114.365601 42.6972764,200.486919 C43.29039,242.207282 60.2394812,281.198631 90.415004,310.280443 C120.590527,339.365714 160.381467,355.065327 202.464616,354.46695 C244.544276,353.878949 283.878169,337.07943 313.212867,307.164041 C342.551053,277.248652 358.376717,237.797278 357.783604,196.076915 C357.249802,158.334202 342.969721,122.096078 317.580973,94.0311613 C309.891431,85.5397427 310.610145,72.4792144 319.178891,64.8559611 C327.744148,57.2361667 340.921735,57.9452261 348.607789,66.4401036 C380.723142,101.93458 398.781704,147.767487 399.46204,195.495832 C400.215643,248.249851 380.196317,298.139963 343.098811,335.969146 C306.004793,373.79833 256.26699,395.042441 203.050752,395.786089 C199.593249,395.834513 196.146212,395.796466 192.713132,395.671948" id="Fill-1"></path>
            <path d="M228.089562,140.591806 L140.706495,140.591806 C129.196604,140.591806 119.863788,131.342905 119.863788,119.928778 C119.863788,108.521568 129.196604,99.2692079 140.706495,99.2692079 L228.089562,99.2692079 C239.599454,99.2692079 248.932269,108.521568 248.932269,119.928778 C248.932269,131.342905 239.599454,140.591806 228.089562,140.591806" id="Fill-4"></path>
            <path d="M259.777525,297.296355 L140.70824,297.296355 C132.959386,297.296355 125.852491,293.03854 122.255431,286.238487 C118.651395,279.438434 119.153797,271.223722 123.549815,264.904446 L191.517136,167.223731 C198.051851,157.833018 211.030571,155.467181 220.506431,161.949021 C229.982292,168.427403 232.365213,181.294237 225.830498,190.688409 L180.40149,255.973757 L259.777525,255.973757 C271.287416,255.973757 280.620232,265.226117 280.620232,276.633326 C280.620232,288.047453 271.287416,297.296355 259.777525,297.296355" id="Fill-6"></path>
        </g>
    </g>
</svg>